<?xml version="1.0" encoding="UTF-8"?>
<svg xmlns="http://www.w3.org/2000/svg" xmlns:xlink="http://www.w3.org/1999/xlink" width="2405" height="2405" viewBox="0 0 2405 2405">
<path fill-rule="nonzero" fill="rgb(100%, 100%, 100%)" fill-opacity="1" d="M 932.023438 1715.023438 L 1472.023438 1715.023438 L 1472.023438 688.273438 L 932.023438 688.273438 Z M 932.023438 1715.023438 "/>
<path fill-rule="nonzero" fill="rgb(100%, 100%, 100%)" fill-opacity="1" d="M 2.023438 0 C 1.488281 0 0.972656 0.210938 0.59375 0.589844 C 0.214844 0.96875 0 1.488281 0 2.019531 L 0 2402.023438 C 0 2403.144531 0.90625 2404.050781 2.023438 2404.050781 L 2402.03125 2404.050781 C 2402.558594 2404.050781 2403.078125 2403.835938 2403.460938 2403.457031 C 2403.839844 2403.078125 2404.050781 2402.5625 2404.050781 2402.027344 L 2404.050781 2.019531 C 2404.050781 0.910156 2403.140625 0 2402.019531 0 Z M 2.023438 0 "/>
<path fill-rule="nonzero" fill="rgb(0%, 0%, 0%)" fill-opacity="1" d="M 233.421875 1573.554688 L 1170.53125 1573.554688 L 2107.628906 1573.558594 C 2107.628906 1550.957031 2107.628906 1528.355469 2107.628906 1505.753906 C 1482.890625 1505.753906 858.160156 1505.753906 233.421875 1505.757812 C 233.421875 1528.355469 233.421875 1550.953125 233.421875 1573.554688 "/>
<path fill-rule="nonzero" fill="rgb(0%, 0%, 0%)" fill-opacity="1" d="M 2170.628906 1573.554688 L 1233.519531 1573.554688 L 296.417969 1573.558594 C 296.417969 1550.957031 296.417969 1528.355469 296.417969 1505.753906 C 921.15625 1505.753906 1545.890625 1505.753906 2170.628906 1505.757812 C 2170.628906 1528.355469 2170.628906 1550.953125 2170.628906 1573.554688 "/>
<path fill-rule="nonzero" fill="rgb(0%, 0%, 0%)" fill-opacity="1" d="M 329.382812 1306.109375 C 329.382812 1307.449219 329.15625 1308.78125 328.714844 1310.050781 L 256.570312 1516.039062 C 254.394531 1522.246094 247.605469 1525.511719 241.402344 1523.339844 C 235.195312 1521.167969 231.929688 1514.375 234.101562 1508.171875 L 306.25 1302.179688 L 305.578125 1306.109375 C 305.578125 1299.539062 310.90625 1294.210938 317.480469 1294.210938 C 324.054688 1294.210938 329.382812 1299.539062 329.382812 1306.109375 Z M 329.382812 1306.109375 "/>
<path fill-rule="nonzero" fill="rgb(0%, 0%, 0%)" fill-opacity="1" d="M 2074.660156 1306.109375 C 2074.660156 1307.449219 2074.890625 1308.78125 2075.339844 1310.050781 L 2147.480469 1516.039062 C 2149.648438 1522.242188 2156.449219 1525.511719 2162.648438 1523.339844 C 2168.851562 1521.167969 2172.121094 1514.375 2169.949219 1508.171875 L 2097.800781 1302.179688 L 2098.46875 1306.109375 C 2098.46875 1299.539062 2093.140625 1294.210938 2086.570312 1294.210938 C 2080 1294.210938 2074.660156 1299.539062 2074.660156 1306.109375 Z M 2074.660156 1306.109375 "/>
<path fill-rule="nonzero" fill="rgb(0%, 0%, 0%)" fill-opacity="1" d="M 1210.429688 1517.851562 C 1211.449219 1522.089844 1210.078125 1526.550781 1206.851562 1529.480469 C 1203.609375 1532.40625 1199.039062 1533.332031 1194.921875 1531.890625 C 1120.160156 1505.691406 1046.011719 1479.695312 902.101562 1466.179688 C 757.480469 1452.601562 542.730469 1451.648438 327.113281 1450.703125 C 320.796875 1450.675781 315.601562 1445.714844 315.28125 1439.402344 L 308.644531 1308.820312 C 308.3125 1302.25 313.363281 1296.660156 319.929688 1296.328125 C 326.492188 1296 332.085938 1301.050781 332.421875 1307.609375 L 339.054688 1438.195312 L 327.21875 1426.898438 C 542.367188 1427.839844 758.390625 1428.777344 904.328125 1442.480469 C 1050.988281 1456.253906 1127.199219 1482.9375 1202.800781 1509.421875 L 1187.289062 1523.460938 L 1187.289062 1523.457031 C 1185.738281 1517.070312 1189.671875 1510.632812 1196.058594 1509.085938 C 1202.441406 1507.539062 1208.878906 1511.460938 1210.429688 1517.851562 Z M 1210.429688 1517.851562 "/>
<path fill-rule="nonzero" fill="rgb(0%, 0%, 0%)" fill-opacity="1" d="M 1193.621094 1517.851562 C 1192.589844 1522.089844 1193.96875 1526.550781 1197.199219 1529.480469 C 1200.429688 1532.40625 1205.011719 1533.332031 1209.128906 1531.890625 C 1283.890625 1505.691406 1358.039062 1479.695312 1501.949219 1466.179688 C 1646.570312 1452.601562 1861.320312 1451.648438 2076.929688 1450.703125 C 2083.25 1450.675781 2088.449219 1445.714844 2088.769531 1439.402344 L 2095.410156 1308.820312 C 2095.738281 1302.25 2090.691406 1296.660156 2084.121094 1296.328125 C 2077.558594 1296 2071.96875 1301.050781 2071.628906 1307.609375 L 2065 1438.195312 L 2076.828125 1426.898438 C 1861.679688 1427.839844 1645.660156 1428.777344 1499.71875 1442.480469 C 1353.058594 1456.253906 1276.851562 1482.9375 1201.25 1509.421875 L 1216.761719 1523.460938 L 1216.761719 1523.457031 C 1218.308594 1517.070312 1214.378906 1510.632812 1207.988281 1509.085938 C 1201.609375 1507.539062 1195.171875 1511.460938 1193.621094 1517.851562 Z M 1193.621094 1517.851562 "/>
<path fill-rule="nonzero" fill="rgb(0%, 0%, 0%)" fill-opacity="1" d="M 1209.589844 1520.835938 L 1209.578125 1520.835938 C 1207.128906 1521.355469 1204.570312 1521.09375 1202.28125 1520.078125 C 1085.640625 1468.417969 971.085938 1417.796875 847.507812 1406.046875 C 723.777344 1394.28125 590.265625 1421.398438 454.507812 1449.070312 C 448.066406 1450.382812 441.777344 1446.226562 440.464844 1439.785156 C 439.152344 1433.34375 443.308594 1427.058594 449.75 1425.746094 C 584.667969 1398.238281 721.835938 1370.179688 849.761719 1382.351562 C 977.84375 1394.53125 1095.929688 1446.9375 1211.921875 1498.308594 L 1204.621094 1497.550781 C 1211.050781 1496.183594 1217.378906 1500.285156 1218.75 1506.710938 C 1220.109375 1513.140625 1216.011719 1519.464844 1209.589844 1520.835938 Z M 1209.589844 1520.835938 "/>
<path fill-rule="nonzero" fill="rgb(0%, 0%, 0%)" fill-opacity="1" d="M 1194.460938 1520.835938 L 1194.46875 1520.835938 C 1196.921875 1521.355469 1199.480469 1521.09375 1201.769531 1520.078125 C 1318.410156 1468.417969 1432.960938 1417.796875 1556.539062 1406.046875 C 1680.269531 1394.28125 1813.78125 1421.398438 1949.539062 1449.070312 C 1955.980469 1450.382812 1962.269531 1446.226562 1963.589844 1439.785156 C 1964.898438 1433.34375 1960.738281 1427.058594 1954.300781 1425.746094 C 1819.378906 1398.238281 1682.21875 1370.179688 1554.289062 1382.351562 C 1426.210938 1394.53125 1308.121094 1446.9375 1192.128906 1498.308594 L 1199.429688 1497.550781 C 1193 1496.183594 1186.679688 1500.285156 1185.308594 1506.710938 C 1183.929688 1513.140625 1188.039062 1519.464844 1194.460938 1520.835938 Z M 1194.460938 1520.835938 "/>
<path fill-rule="nonzero" fill="rgb(0%, 0%, 0%)" fill-opacity="1" d="M 1207.269531 1515.171875 C 1204.558594 1515.527344 1201.800781 1514.9375 1199.46875 1513.496094 C 1080.121094 1439.71875 963.578125 1367.929688 822.414062 1356.800781 C 680.601562 1345.609375 512.917969 1395.46875 342.167969 1446.425781 C 335.867188 1448.304688 329.238281 1444.722656 327.359375 1438.421875 C 325.480469 1432.121094 329.0625 1425.492188 335.359375 1423.613281 C 504.703125 1373.078125 677.109375 1321.460938 824.285156 1333.058594 C 972.109375 1344.71875 1093.449219 1419.972656 1211.980469 1493.246094 L 1204.179688 1491.570312 C 1210.691406 1490.714844 1216.671875 1495.304688 1217.53125 1501.824219 C 1218.378906 1508.339844 1213.789062 1514.316406 1207.269531 1515.171875 Z M 1207.269531 1515.171875 "/>
<path fill-rule="nonzero" fill="rgb(0%, 0%, 0%)" fill-opacity="1" d="M 1196.78125 1515.171875 C 1199.5 1515.527344 1202.25 1514.9375 1204.578125 1513.496094 C 1323.929688 1439.71875 1440.46875 1367.929688 1581.640625 1356.800781 C 1723.449219 1345.609375 1891.128906 1395.46875 2061.878906 1446.425781 C 2068.179688 1448.304688 2074.808594 1444.722656 2076.691406 1438.421875 C 2078.570312 1432.125 2074.988281 1425.492188 2068.691406 1423.613281 C 1899.351562 1373.078125 1726.941406 1321.460938 1579.769531 1333.058594 C 1431.941406 1344.71875 1310.601562 1419.972656 1192.070312 1493.246094 L 1199.871094 1491.570312 C 1193.359375 1490.714844 1187.378906 1495.304688 1186.519531 1501.824219 C 1185.671875 1508.339844 1190.261719 1514.316406 1196.78125 1515.171875 Z M 1196.78125 1515.171875 "/>
<path fill-rule="nonzero" fill="rgb(0%, 0%, 0%)" fill-opacity="1" d="M 1228.960938 1500.089844 C 1224.910156 1502.457031 1219.859375 1502.234375 1216.039062 1499.515625 C 1100.660156 1417.359375 988.121094 1337.5 850.101562 1319.359375 C 711.480469 1301.128906 546.039062 1344.910156 377.320312 1389.75 C 372.230469 1391.109375 366.859375 1388.960938 364.113281 1384.46875 L 315.707031 1305.460938 C 312.742188 1300.621094 313.609375 1294.351562 317.785156 1290.5 L 336.601562 1273.128906 C 341.433594 1268.671875 348.964844 1268.96875 353.421875 1273.800781 C 357.882812 1278.628906 357.578125 1286.160156 352.75 1290.621094 L 333.933594 1307.988281 L 336.007812 1293.03125 L 384.410156 1372.039062 L 371.203125 1366.75 C 538.425781 1322.300781 708.929688 1276.789062 853.203125 1295.75 C 998.074219 1314.800781 1115.378906 1398.609375 1229.839844 1480.125 L 1216.929688 1479.546875 C 1222.601562 1476.226562 1229.890625 1478.132812 1233.210938 1483.804688 C 1236.539062 1489.476562 1234.628906 1496.769531 1228.960938 1500.089844 Z M 1228.960938 1500.089844 "/>
<path fill-rule="nonzero" fill="rgb(0%, 0%, 0%)" fill-opacity="1" d="M 1175.089844 1500.089844 C 1179.140625 1502.457031 1184.191406 1502.234375 1188.019531 1499.515625 C 1303.378906 1417.359375 1415.929688 1337.5 1553.949219 1319.359375 C 1692.570312 1301.128906 1858.011719 1344.910156 2026.730469 1389.75 C 2031.820312 1391.109375 2037.191406 1388.960938 2039.941406 1384.46875 L 2088.339844 1305.460938 C 2091.308594 1300.621094 2090.441406 1294.351562 2086.269531 1290.5 L 2067.449219 1273.128906 C 2062.621094 1268.671875 2055.089844 1268.96875 2050.628906 1273.800781 C 2046.171875 1278.628906 2046.46875 1286.160156 2051.300781 1290.621094 L 2070.121094 1307.988281 L 2068.039062 1293.03125 L 2019.640625 1372.039062 L 2032.851562 1366.75 C 1865.621094 1322.300781 1695.121094 1276.789062 1550.851562 1295.75 C 1405.96875 1314.800781 1288.679688 1398.609375 1174.210938 1480.125 L 1187.128906 1479.546875 C 1181.449219 1476.226562 1174.160156 1478.132812 1170.839844 1483.804688 C 1167.519531 1489.476562 1169.421875 1496.769531 1175.089844 1500.089844 Z M 1175.089844 1500.089844 "/>
<path fill-rule="nonzero" fill="rgb(0%, 0%, 0%)" fill-opacity="1" d="M 1215.820312 1474.816406 C 1214.089844 1474.613281 1212.429688 1474.035156 1210.949219 1473.117188 C 1100.210938 1404.699219 991.378906 1337.570312 850.226562 1309.980469 C 708.519531 1282.269531 533.675781 1294.25 356.613281 1306.460938 C 351.015625 1306.851562 345.910156 1303.269531 344.355469 1297.890625 L 318.160156 1207.039062 C 317.171875 1203.621094 317.773438 1199.929688 319.796875 1196.988281 C 321.820312 1194.058594 325.054688 1192.179688 328.609375 1191.878906 L 365.828125 1188.789062 C 372.378906 1188.238281 378.128906 1193.109375 378.675781 1199.660156 C 379.222656 1206.210938 374.351562 1211.960938 367.800781 1212.511719 L 330.585938 1215.609375 L 341.035156 1200.441406 L 367.230469 1291.289062 L 354.972656 1282.710938 C 531.058594 1270.570312 709.363281 1258.179688 854.792969 1286.609375 C 1000.78125 1315.148438 1113.070312 1384.660156 1223.460938 1452.867188 L 1218.589844 1451.171875 C 1225.121094 1451.933594 1229.789062 1457.847656 1229.03125 1464.375 C 1228.269531 1470.902344 1222.351562 1475.578125 1215.820312 1474.816406 Z M 1215.820312 1474.816406 "/>
<path fill-rule="nonzero" fill="rgb(0%, 0%, 0%)" fill-opacity="1" d="M 1188.230469 1474.816406 C 1189.960938 1474.613281 1191.621094 1474.035156 1193.101562 1473.117188 C 1303.828125 1404.699219 1412.671875 1337.570312 1553.820312 1309.980469 C 1695.53125 1282.269531 1870.371094 1294.25 2047.441406 1306.460938 C 2053.03125 1306.851562 2058.140625 1303.269531 2059.691406 1297.890625 L 2085.890625 1207.039062 C 2086.878906 1203.621094 2086.28125 1199.929688 2084.25 1196.988281 C 2082.230469 1194.058594 2079 1192.179688 2075.441406 1191.878906 L 2038.21875 1188.789062 C 2031.671875 1188.238281 2025.921875 1193.109375 2025.378906 1199.660156 C 2024.828125 1206.210938 2029.691406 1211.960938 2036.25 1212.511719 L 2073.46875 1215.609375 L 2063.019531 1200.441406 L 2036.820312 1291.289062 L 2049.070312 1282.710938 C 1872.988281 1270.570312 1694.691406 1258.179688 1549.261719 1286.609375 C 1403.269531 1315.148438 1290.980469 1384.660156 1180.589844 1452.867188 L 1185.460938 1451.171875 C 1178.929688 1451.933594 1174.261719 1457.847656 1175.019531 1464.375 C 1175.789062 1470.902344 1181.691406 1475.578125 1188.230469 1474.816406 Z M 1188.230469 1474.816406 "/>
<path fill-rule="nonzero" fill="rgb(0%, 0%, 0%)" fill-opacity="1" d="M 1208.410156 1455.34375 C 1206.769531 1455.09375 1205.210938 1454.507812 1203.820312 1453.621094 C 1110.660156 1394.359375 1018.929688 1336.058594 882.070312 1302.960938 C 744.492188 1269.679688 561.09375 1261.75 375.960938 1253.808594 C 372.71875 1253.660156 369.675781 1252.210938 367.535156 1249.769531 C 365.390625 1247.339844 364.335938 1244.128906 364.613281 1240.898438 L 380.246094 1058.039062 C 380.539062 1054.621094 382.289062 1051.5 385.050781 1049.46875 C 387.808594 1047.441406 391.3125 1046.691406 394.660156 1047.429688 C 535.910156 1078.46875 678.472656 1109.761719 814.890625 1169.121094 C 951.242188 1228.460938 1081.089844 1315.679688 1209.851562 1402.128906 C 1215.308594 1405.792969 1216.761719 1413.1875 1213.089844 1418.644531 C 1209.429688 1424.101562 1202.039062 1425.554688 1196.578125 1421.890625 C 1067.441406 1335.191406 939.410156 1249.269531 805.390625 1190.949219 C 671.445312 1132.660156 531.15625 1101.800781 389.550781 1070.679688 L 403.964844 1060.070312 L 388.332031 1242.929688 L 376.984375 1230.019531 C 561.289062 1237.941406 747.332031 1245.878906 887.667969 1279.820312 C 1028.71875 1313.941406 1123.378906 1374.230469 1216.601562 1433.535156 L 1212.019531 1431.816406 C 1218.519531 1432.816406 1222.980469 1438.890625 1221.980469 1445.390625 C 1220.980469 1451.886719 1214.898438 1456.34375 1208.410156 1455.34375 Z M 1208.410156 1455.34375 "/>
<path fill-rule="nonzero" fill="rgb(0%, 0%, 0%)" fill-opacity="1" d="M 1195.640625 1455.34375 C 1197.269531 1455.09375 1198.828125 1454.507812 1200.230469 1453.621094 C 1293.378906 1394.359375 1385.121094 1336.058594 1521.980469 1302.960938 C 1659.558594 1269.679688 1842.960938 1261.75 2028.089844 1253.808594 C 2031.328125 1253.660156 2034.378906 1252.210938 2036.519531 1249.769531 C 2038.660156 1247.339844 2039.71875 1244.128906 2039.441406 1240.898438 L 2023.808594 1058.039062 C 2023.511719 1054.621094 2021.761719 1051.5 2019 1049.46875 C 2016.238281 1047.441406 2012.738281 1046.691406 2009.390625 1047.429688 C 1868.140625 1078.46875 1725.578125 1109.761719 1589.160156 1169.121094 C 1452.808594 1228.460938 1322.960938 1315.679688 1194.199219 1402.128906 C 1188.75 1405.792969 1187.289062 1413.1875 1190.960938 1418.644531 C 1194.621094 1424.101562 1202.019531 1425.554688 1207.46875 1421.890625 C 1336.609375 1335.191406 1464.640625 1249.269531 1598.660156 1190.949219 C 1732.609375 1132.660156 1872.890625 1101.800781 2014.5 1070.679688 L 2000.089844 1060.070312 L 2015.71875 1242.929688 L 2027.070312 1230.019531 C 1842.761719 1237.941406 1656.71875 1245.878906 1516.378906 1279.820312 C 1375.328125 1313.941406 1280.679688 1374.230469 1187.441406 1433.535156 L 1192.03125 1431.816406 C 1185.53125 1432.816406 1181.070312 1438.890625 1182.070312 1445.390625 C 1183.070312 1451.886719 1189.148438 1456.34375 1195.640625 1455.34375 Z M 1195.640625 1455.34375 "/>
<path fill-rule="nonzero" fill="rgb(0%, 0%, 0%)" fill-opacity="1" d="M 1205.320312 1401.210938 C 1202.941406 1401.140625 1200.640625 1400.371094 1198.710938 1398.980469 L 1198.320312 1398.699219 C 1042.871094 1287.191406 889.109375 1177.011719 759.09375 1122.859375 C 629.90625 1069.058594 523.933594 1070.570312 415.820312 1072.199219 C 409.246094 1072.300781 403.839844 1067.050781 403.738281 1060.480469 C 403.640625 1053.898438 408.890625 1048.5 415.460938 1048.390625 C 523.714844 1046.769531 634.101562 1045.019531 768.246094 1100.890625 C 901.34375 1156.320312 1057.589844 1268.449219 1212.191406 1379.359375 L 1212.578125 1379.640625 L 1205.980469 1377.410156 C 1212.550781 1377.589844 1217.730469 1383.070312 1217.539062 1389.640625 C 1217.359375 1396.210938 1211.890625 1401.390625 1205.320312 1401.210938 Z M 1205.320312 1401.210938 "/>
<path fill-rule="nonzero" fill="rgb(0%, 0%, 0%)" fill-opacity="1" d="M 1198.730469 1401.210938 C 1201.109375 1401.140625 1203.410156 1400.371094 1205.339844 1398.980469 L 1205.730469 1398.699219 C 1361.179688 1287.191406 1514.941406 1177.011719 1644.949219 1122.859375 C 1774.140625 1069.058594 1880.121094 1070.570312 1988.230469 1072.199219 C 1994.800781 1072.300781 2000.210938 1067.050781 2000.308594 1060.480469 C 2000.410156 1053.898438 1995.160156 1048.5 1988.589844 1048.390625 C 1880.339844 1046.769531 1769.949219 1045.019531 1635.800781 1100.890625 C 1502.699219 1156.320312 1346.460938 1268.449219 1191.859375 1379.359375 L 1191.460938 1379.640625 L 1198.070312 1377.410156 C 1191.5 1377.589844 1186.320312 1383.070312 1186.5 1389.640625 C 1186.691406 1396.210938 1192.160156 1401.390625 1198.730469 1401.210938 Z M 1198.730469 1401.210938 "/>
<path fill-rule="nonzero" fill="rgb(0%, 0%, 0%)" fill-opacity="1" d="M 483.058594 1061.308594 C 482.75 1060.871094 482.46875 1060.421875 482.222656 1059.941406 L 415.300781 931.710938 C 413.097656 927.488281 413.621094 922.359375 416.628906 918.679688 C 419.636719 914.988281 424.550781 913.441406 429.125 914.75 C 628.984375 971.941406 831.039062 1029.671875 962.496094 1104.320312 C 1095.089844 1179.609375 1155.839844 1271.980469 1215.378906 1362.339844 C 1219 1367.828125 1217.480469 1375.210938 1211.988281 1378.828125 C 1206.5 1382.441406 1199.121094 1380.929688 1195.511719 1375.441406 C 1136.160156 1285.359375 1078.019531 1197.289062 950.742188 1125.019531 C 822.335938 1052.101562 623.554688 995.140625 422.578125 937.640625 L 436.402344 920.691406 L 503.328125 1048.929688 L 502.492188 1047.558594 C 506.289062 1052.929688 505.015625 1060.359375 499.648438 1064.160156 C 494.285156 1067.949219 486.855469 1066.679688 483.058594 1061.308594 Z M 483.058594 1061.308594 "/>
<path fill-rule="nonzero" fill="rgb(0%, 0%, 0%)" fill-opacity="1" d="M 1920.988281 1061.308594 C 1921.300781 1060.871094 1921.578125 1060.421875 1921.828125 1059.941406 L 1988.75 931.710938 C 1990.949219 927.488281 1990.429688 922.359375 1987.421875 918.679688 C 1984.410156 914.988281 1979.5 913.441406 1974.929688 914.75 C 1775.070312 971.941406 1573.011719 1029.671875 1441.558594 1104.320312 C 1308.960938 1179.609375 1248.210938 1271.980469 1188.660156 1362.339844 C 1185.050781 1367.828125 1186.570312 1375.210938 1192.058594 1378.828125 C 1197.550781 1382.441406 1204.929688 1380.929688 1208.539062 1375.441406 C 1267.890625 1285.359375 1326.039062 1197.289062 1453.308594 1125.019531 C 1581.710938 1052.101562 1780.488281 995.140625 1981.46875 937.640625 L 1967.640625 920.691406 L 1900.71875 1048.929688 L 1901.558594 1047.558594 C 1897.761719 1052.929688 1899.039062 1060.359375 1904.398438 1064.160156 C 1909.769531 1067.949219 1917.191406 1066.679688 1920.988281 1061.308594 Z M 1920.988281 1061.308594 "/>
</svg>
