<?xml version="1.0" encoding="UTF-8" standalone="no"?>
<!-- Uploaded to: SVG Repo, www.svgrepo.com, Generator: SVG Repo Mixer Tools -->

<svg
   fill="#000000"
   height="355.15393"
   width="397.67712"
   version="1.1"
   id="Capa_1"
   viewBox="0 0 37.428376 33.4262"
   xml:space="preserve"
   sodipodi:docname="email.svg"
   inkscape:version="1.3 (0e150ed6c4, 2023-07-21)"
   inkscape:export-filename="email.svg"
   inkscape:export-xdpi="96"
   inkscape:export-ydpi="96"
   xmlns:inkscape="http://www.inkscape.org/namespaces/inkscape"
   xmlns:sodipodi="http://sodipodi.sourceforge.net/DTD/sodipodi-0.dtd"
   xmlns="http://www.w3.org/2000/svg"
   xmlns:svg="http://www.w3.org/2000/svg"><defs
   id="defs1" /><sodipodi:namedview
   id="namedview1"
   pagecolor="#ffffff"
   bordercolor="#000000"
   borderopacity="0.25"
   inkscape:showpageshadow="2"
   inkscape:pageopacity="0.0"
   inkscape:pagecheckerboard="0"
   inkscape:deskcolor="#d1d1d1"
   inkscape:zoom="1.07625"
   inkscape:cx="297.32869"
   inkscape:cy="156.56214"
   inkscape:window-width="2560"
   inkscape:window-height="1057"
   inkscape:window-x="-8"
   inkscape:window-y="-8"
   inkscape:window-maximized="1"
   inkscape:current-layer="Capa_1"
   showguides="false" />&#10;<g
   id="g1"
   style="fill:#ca0000;fill-opacity:1"
   inkscape:export-filename="g1.svg"
   inkscape:export-xdpi="96"
   inkscape:export-ydpi="96"
   transform="matrix(0.45063878,0,0,0.57694213,1.6615401,-4.9633155)">&#10;	<path
   d="M 66.097,12.089 H 9.197 C 4.126,12.089 0,16.215 0,21.286 v 32.722 c 0,5.071 4.126,9.197 9.197,9.197 h 56.9 c 5.071,0 9.197,-4.126 9.197,-9.197 V 21.287 c 0.001,-5.072 -4.125,-9.198 -9.197,-9.198 z m -4.494,6 L 37.647,33.523 13.691,18.089 Z m 4.494,39.117 H 9.197 C 7.434,57.206 6,55.771 6,54.009 V 21.457 l 29.796,19.16 c 0.04,0.025 0.083,0.042 0.124,0.065 0.043,0.024 0.087,0.047 0.131,0.069 0.231,0.119 0.469,0.215 0.712,0.278 0.025,0.007 0.05,0.01 0.075,0.016 0.267,0.063 0.537,0.102 0.807,0.102 10e-4,0 0.002,0 0.002,0 0.002,0 0.003,0 0.004,0 0.27,0 0.54,-0.038 0.807,-0.102 0.025,-0.006 0.05,-0.009 0.075,-0.016 0.243,-0.063 0.48,-0.159 0.712,-0.278 0.044,-0.022 0.088,-0.045 0.131,-0.069 0.041,-0.023 0.084,-0.04 0.124,-0.065 l 29.796,-19.16 v 32.551 c -0.001,1.763 -1.436,3.198 -3.199,3.198 z"
   id="path1"
   style="fill:#ca0000;fill-opacity:1" />&#10;</g>&#10;</svg>
