<?xml version="1.0" encoding="UTF-8" standalone="no"?>
<!-- Created with Inkscape (http://www.inkscape.org/) -->

<svg
   width="210mm"
   height="297mm"
   viewBox="0 0 210 297"
   version="1.1"
   id="svg1"
   xml:space="preserve"
   xmlns="http://www.w3.org/2000/svg"
   xmlns:svg="http://www.w3.org/2000/svg"><defs
     id="defs1" /><path
     style="opacity:0.985816;fill:#6889ae;fill-opacity:1;stroke:none"
     d="m 100.06724,85.405207 h 0.077 v -0.15394 h 0.077 l 0.38485,7.00424 h 0.077 v -1.07758 h 0.15394 l 0.077,3.3097 h 0.077 v -1.30849 h 0.077 l 0.077,1.69334 0.23091,0.30788 h 0.15394 l 0.077,-2.54 h 0.077 v 1.7703 h 0.077 c 0,-9.00416 0.2309,-18.00838 0.2309,-27.01636 0,-4.80842 -0.67776,-10.187091 0.077,-14.93213 -0.74312,0.0925 -1.27715,1.04436 -1.74946,1.56695 -1.755179,1.942009 -2.410119,3.024409 -2.027789,5.668209 1.1934,8.252411 1.776039,17.374131 1.776039,25.707881 m -9.775153,-32.09637 c -0.959,1.36167 -3.13683,3.434439 -3.42241,5.080019 -0.15822,0.91177 0.45589,2.195681 0.68344,3.078771 0.6022,2.33694 1.22745,4.66681 1.82708,7.00424 2.19463,8.55486 4.3726,17.13133 6.761584,25.63091 h 0.077 v -0.23091 h 0.077 l -0.077,0.69273 0.15394,0.38485 h 0.077 l 0.15394,-0.23091 0.077,1.15454 0.15394,-0.15394 0.077,0.69273 0.30788,0.46182 h 0.077 v -0.69273 l 0.23091,0.077 v -2.30909 h -0.077 v 1.15455 h -0.077 l 0.077,-1.30849 -0.15394,-1.0006 h -0.077 l -0.15394,0.15394 c 0,-0.30209 -0.0861,-0.67577 0.15394,-0.61576 -2.785304,-12.88296 -3.860874,-26.1569 -6.773334,-39.02364 h -0.15394 m 15.393943,34.86727 c 0.27594,1e-5 0.15394,0.68313 0.15394,0.92364 h -0.077 v -0.7697 h -0.077 l -0.23091,2.15516 v 0.077 l 0.15394,1.84727 h -0.077 l -0.077,-1.5394 h -0.077 v 3.54061 l 0.46182,-0.61576 0.077,0.38485 h 0.077 l 0.077,-1.15454 0.23091,0.15394 0.077,-1.46243 h 0.077 v 0.7697 h 0.077 l 0.077,-2.15515 h 0.077 v 0.46181 h 0.077 l 0.15394,-1.53939 h 0.077 v 0.38485 h 0.077 c 0.0234,-2.88478 1.04446,-6.01369 1.56755,-8.85152 1.13845,-6.17627 2.21455,-12.36476 3.30999,-18.54969 0.48948,-2.763671 1.68762,-6.130891 1.51094,-8.92849 -1.16903,0.54093 -3.98119,2.516769 -4.49272,3.701779 -0.84405,1.95534 -0.52339,4.961431 -0.78028,7.073981 -0.96751,7.95635 -1.0378,16.22076 -2.50094,24.09152 M 79.131478,56.310716 c -0.64268,1.46142 -2.65809,4.100901 -2.52526,5.695761 0.239,2.86955 2.95936,6.59934 4.138799,9.23636 2.34031,5.23255 4.81353,10.40545 7.18232,15.62485 1.15832,2.55226 2.12904,5.98622 3.90414,8.15879 l -0.15394,-0.077 v 0.077 l 1.00061,2.23212 h 0.077 l 0.15394,-0.23091 v 0.615763 l 0.23091,-0.077 0.077,0.84666 h 0.077 l 0.15393,-0.23091 v 0.53879 h 0.077 l 0.15394,-0.15394 0.077,0.46182 0.46182,-0.23091 v 0.30788 h 0.15394 v -0.61576 h -0.077 l -0.15394,0.15394 c -0.0897,-0.26923 -0.1026,-0.60292 0.15394,-0.53879 l -0.23091,-0.46181 h -0.077 l -0.077,0.2309 0.077,-0.692723 -0.15394,-0.38485 h -0.077 v 0.30788 h -0.077 l 0.077,-0.61576 -0.46182,-0.61576 0.23091,-0.077 c -2.65306,-4.74012 -3.86708,-10.89688 -5.73414,-16.00969 -2.7806,-7.61447 -6.63264,-15.57909 -8.428279,-23.475761 h -0.23091 m 32.019402,33.096971 -0.15394,-0.15394 h -0.077 l -0.077,1.23152 h -0.077 v -0.30788 h -0.077 l -0.23091,0.84666 0.15394,0.38485 -0.15394,-0.15394 h -0.077 l -0.15394,0.61576 v 0.077 l 0.077,0.61576 h -0.077 v -0.53879 h -0.077 l -0.23091,1.00061 h 0.077 l 0.077,-0.15394 v 0.69272 l -0.23091,-0.077 0.15394,1.15455 -0.30788,0.077 v -0.61576 h -0.077 l 0.077,1.07758 h 0.077 l 0.15394,-0.23091 0.15394,0.23091 0.23091,-0.69273 0.23091,0.15394 0.077,-0.7697 h 0.077 v 0.38485 h 0.077 l 0.077,-1.07758 0.23091,0.077 0.15394,-0.30788 c -0.24498,-10e-6 -0.1301,-0.2013 -0.077,-0.38484 h 0.077 v 0.30787 h 0.077 l 0.15394,-0.46181 v -0.077 l -0.077,-0.46182 h 0.077 v 0.38485 h 0.077 l 0.23091,-0.61576 -0.077,-0.46182 0.077,0.23091 h 0.077 l 0.30788,-1.53939 0.2309,0.077 c 2.42495,-8.23374 6.05306,-16.23169 8.93319,-24.32243 1.03547,-2.90883 2.94684,-6.248611 3.305,-9.313331 -1.24471,0.26862 -4.33247,1.79277 -5.05228,2.85873 -1.09725,1.624921 -1.33912,4.493781 -1.88948,6.377631 -1.50283,5.14414 -2.96248,10.30458 -4.38661,15.47091 -0.59979,2.17584 -2.63434,6.19247 -2.14133,8.3897 m 3.84848,3.77151 v 0.077 l 0.077,0.30788 h -0.077 v -0.23091 h -0.077 l -0.2309,0.61576 0.15393,0.23091 -0.15393,-0.15394 h -0.077 l -0.077,0.7697 h -0.077 v -0.38485 h -0.077 l -0.30788,0.84667 v 0.69272 l -0.23091,-0.077 0.077,0.92364 v 0.077 l 0.61576,-0.7697 0.30787,0.077 -0.077,-0.46181 h 0.15394 v 0.30787 h 0.077 l 0.077,-0.76969 0.23091,0.077 0.15394,-0.15394 v -0.077 l -0.15394,-0.23091 0.23091,0.15394 c 0.39928,-0.7023 1.0549,-1.47572 1.07758,-2.30909 l 0.15394,0.23091 h 0.077 c 0.88859,-2.85858 3.29345,-5.81007 4.82715,-8.3897 3.18224,-5.35242 6.23557,-10.7829 9.36995,-16.16364 1.29327,-2.22014 3.44811,-4.83664 4.12168,-7.31212 -1.41442,0.25994 -4.45295,0.97772 -5.49387,1.97867 -1.94068,1.86616 -3.14878,6.19573 -4.29654,8.64315 -3.32267,7.08513 -6.38049,14.75205 -10.37565,21.47455 M 68.586628,61.236717 c -0.25436,1.72354 -1.80972,4.30505 -1.44772,6.00364 0.21945,1.02976 1.39058,2.22325 1.99074,3.07878 1.52032,2.16724 2.98823,4.37093 4.50205,6.54243 5.28519,7.58131 10.826909,15.08068 15.813719,22.860003 h 0.30788 l -0.23091,0.077 0.7697,0.61576 v 0.46181 l 0.23091,-0.15394 -0.15394,0.23091 0.15394,0.30788 0.23091,-0.15394 -0.077,0.38485 0.15393,0.23091 h 0.077 l 0.15394,-0.23091 v 0.46182 l 0.23091,-0.077 0.077,0.38485 0.38485,-0.30788 -0.30788,-1.15455 h -0.077 v 0.30788 h -0.15394 l -0.077,-0.76969 -0.2309,-0.38485 -0.23091,0.077 v -0.61573 l -0.23091,0.077 -0.84667,-2.00121 -0.23091,0.077 0.15394,-0.153943 c -5.19567,-8.72254 -10.027209,-17.67895 -15.095519,-26.47758 -1.34375,-2.33277 -2.65701,-4.68356 -4.02174,-7.00424 -0.47887,-0.81429 -0.94782,-2.25119 -1.8185,-2.69394 m 49.799402,35.79091 0.15394,0.30788 h -0.077 v -0.23091 h -0.077 l -0.30788,0.30788 v 0.077 l 0.23091,-0.077 v 0.230913 h -0.38485 l 0.077,0.46182 h -0.077 v -0.30788 h -0.077 l -0.15394,0.23091 c 0.0805,0.21445 0.0422,0.27424 -0.15394,0.38484 l -0.23091,0.30788 -0.2309,0.69273 0.2309,0.15394 -0.30787,-0.077 v 0.077 l 0.30787,0.30788 0.46182,-0.69273 0.077,0.15394 h 0.077 l 0.077,-0.30788 0.23091,0.077 -0.077,-0.30788 h 0.38485 l -0.077,-0.30788 0.23091,0.15394 0.23091,-0.38485 c -0.18749,0 -0.12431,-0.0605 -0.077,-0.2309 l 0.15394,0.15393 0.15394,-0.2309 0.23091,-0.15394 -0.15394,-0.23091 0.077,-0.077 0.15394,0.15394 h 0.077 c 5.80028,-7.097873 11.90736,-13.951163 17.75388,-21.013073 2.22776,-2.69087 5.92635,-5.7439 7.33824,-8.92815 -1.43909,0.0208 -4.46442,0.16684 -5.68355,0.94403 -2.25501,1.43759 -4.19326,5.60993 -5.76489,7.78831 -4.93647,6.8423 -10.10674,13.58116 -14.79823,20.59312 M 59.196328,67.933077 c -0.24034,1.5557 -1.00515,4.59136 -0.48811,6.08061 0.33059,0.9522 1.63232,1.82545 2.32349,2.53277 1.89086,1.93507 3.81934,3.83864 5.67738,5.80531 7.24514,7.66868 14.827539,15.05453 22.274509,22.526773 l 0.23091,-0.15394 0.23091,0.38485 -0.23091,-0.077 0.69273,0.69273 -0.38485,-0.53879 0.23091,0.23091 0.53879,0.53878 h 0.077 l -0.46182,-1.30848 h -0.077 l -0.15394,0.15394 v -0.38485 l -0.23091,0.077 c -0.0757,-0.22706 -0.11444,-0.27876 0.077,-0.23091 l -0.46182,-0.69273 h -0.077 l -0.15394,0.15394 c -0.12938,-0.95458 -1.175,-1.82409 -1.76171,-2.54682 -1.59321,-1.96257 -3.23279,-3.887243 -4.82901,-5.847153 -5.394159,-6.62314 -10.951299,-13.1116 -16.369109,-19.71515 -1.51867,-1.85105 -3.05806,-3.68831 -4.60464,-5.51614 -0.57639,-0.68121 -1.20869,-1.84834 -2.06886,-2.16565 m 61.883642,33.096973 0.15394,0.23091 -0.077,0.077 -0.23091,-0.15394 -0.61576,0.53879 v 0.077 l 0.15394,0.30788 h -0.46179 v 0.077 l 0.15394,0.23091 -0.46181,0.38485 c 0.35504,0.024 0.68938,0.0637 0.84666,-0.30788 h 0.53879 l -0.15394,-0.23091 0.23091,0.15394 0.30788,-0.15394 -0.15394,-0.23091 0.077,-0.077 0.23091,0.15394 0.077,-0.38485 0.61575,-0.23091 v -0.077 l -0.15393,-0.15394 0.30787,0.15394 c 4.68351,-4.749123 10.50165,-8.749243 15.62471,-13.032613 4.80312,-4.01586 9.47467,-8.85192 14.70135,-12.29042 -0.20812,-0.52534 -1.85741,-0.36707 -2.38606,-0.38276 -3.24491,-0.0963 -4.16762,0.69931 -6.49194,2.99137 -7.58026,7.47502 -15.30547,14.8014 -22.83351,22.329573 M 51.037538,76.014897 c 3e-5,1.57726 -0.21529,4.76101 0.53195,6.14536 0.48511,0.89872 1.96392,1.55754 2.77773,2.14318 2.30324,1.6575 4.61937,3.29664 6.92729,4.9479 5.72012,4.09261 11.4543,8.16581 17.18516,12.243433 2.719249,1.93479 5.964589,3.68645 8.368779,6.00074 h 0.077 l 0.077,-0.23091 0.7697,0.7697 -0.077,-0.23091 0.23091,0.30788 0.23091,-0.077 0.077,0.077 -0.077,0.23091 h 0.2309 v -0.077 -0.23091 l 0.15394,0.077 0.077,-0.38485 h -0.077 v 0.23091 l -0.2309,-0.077 0.15393,-0.23091 h -0.38484 l 0.15394,-0.23091 -0.46182,-0.077 v -0.38485 l -0.23091,0.15394 0.077,-0.23091 -1.15455,-1.00061 -0.23091,0.15394 c -0.26084,-0.94686 -1.6674,-1.78507 -2.40105,-2.39848 -2.04908,-1.71326 -4.076199,-3.45363 -6.100379,-5.19608 -6.02652,-5.187673 -12.12479,-10.296233 -18.20671,-15.419263 -2.51049,-2.11468 -5.46408,-5.70379 -8.46701,-7.0043 m 72.428492,28.786673 v 0.077 l 0.15394,0.15394 h -0.46182 l 0.15394,0.23091 -0.46182,0.077 0.077,0.15394 -0.30788,0.077 0.077,-0.23091 h -0.077 l -0.077,0.46182 h -0.38484 l -0.53879,0.61575 v 0.15394 l 0.92363,0.15394 v -0.077 h -0.46181 v -0.077 l 0.76969,-0.077 -0.077,-0.30788 h 0.077 l 0.077,0.23091 0.38485,-0.23091 -0.15394,-0.15394 0.30788,-0.077 -0.077,0.23091 0.53879,-0.23091 v -0.077 l -0.23091,-0.15393 1.53939,-0.53879 -0.15394,-0.23091 0.30788,0.15394 c 7.50032,-5.47202 16.57838,-9.561243 24.63031,-14.206923 2.66621,-1.53832 7.68372,-3.29249 9.54424,-5.72823 -1.68514,-0.13744 -4.05316,-1.33502 -5.69576,-0.96618 -2.68864,0.60373 -5.84929,3.91237 -8.15879,5.42752 -7.42182,4.86915 -14.47533,10.887933 -22.24424,15.165933 m -15.70182,-19.627273 -0.077,0.077 0.077,-0.077 m -63.423032,0.30787 c 0.33869,1.49017 0.64404,5.03028 1.74518,6.09247 0.94621,0.91274 2.83391,1.45266 4.02755,2.00254 2.73539,1.26012 5.44045,2.59329 8.15878,3.89015 9.21939,4.398403 18.35908,9.070563 27.709089,13.183943 0,-0.23276 0.12877,-0.12536 0.23091,0 l -0.15394,-0.077 v 0.077 l 0.30788,0.23091 0.30788,-0.15394 -0.15394,0.15394 v 0.077 l 0.38485,-0.2309 -0.15394,-0.30788 0.15394,0.15394 c -0.13239,-0.76638 -1.83701,-1.40514 -2.46305,-1.76994 -2.46924,-1.43884 -4.945379,-2.88086 -7.389069,-4.36186 -7.31875,-4.43551 -14.78425,-8.637653 -22.16727,-12.965963 -3.1188,-1.82841 -7.03759,-5.1457 -10.54485,-5.99435 m 61.729702,0.077 v 0.38485 h -0.077 l 0.077,-0.38485 m 1.15454,2.38607 v 0.2309 h -0.077 l 0.077,-0.2309 m -6.69636,0.2309 v 0.61576 h -0.077 l 0.077,-0.61576 m -5.567479,1.05192 -0.0257,0.0513 0.0257,-0.0513 m 1.69333,0.077 -0.0257,0.0513 0.0257,-0.0513 m 14.034149,0.64142 0.077,0.077 -0.077,-0.077 m -13.777579,0.92363 v 0.46182 h -0.077 l 0.077,-0.46182 m -1.38545,0.15394 v 0.30788 h -0.077 l 0.077,-0.30788 m 20.627879,0.15394 -0.077,0.077 0.077,-0.077 m -0.23091,0.46182 -0.15394,0.15394 v -0.15394 h 0.15394 m -20.166059,0.23091 v 0.38485 h -0.077 l 0.077,-0.38485 m 19.858179,0.30788 v 0.30788 h -0.077 l 0.077,-0.30788 m 1.3598,0.12828 -0.0256,0.0513 0.0256,-0.0513 m -26.221013,0.25657 -0.077,0.077 0.077,-0.077 m 6.491114,0.0513 0.0256,0.0513 -0.0256,-0.0513 m -4.797784,0.25657 v 0.2309 h -0.15394 v -0.2309 h 0.15394 m 22.936973,0 v 0.15394 h -0.15394 v -0.15394 h 0.15394 m -19.319399,0.15394 v 0.30787 h -0.077 l 0.077,-0.30787 m 20.396979,0.10262 c 0.0595,0 0.0123,0.0383 -0.0257,0.0256 l 0.0257,-0.0256 m -0.23091,0.43616 v 0.15394 H 116.077 l 0.15394,-0.15394 m 9.31333,15.163033 v 0.077 l 0.15394,0.15394 -0.30788,-0.15394 -1.0006,0.46182 v 0.077 h 0.23091 v 0.077 c -0.24877,0.0415 -0.36366,0.1461 -0.30788,-0.077 l -0.46182,0.23091 0.077,0.23091 h -0.69273 v 0.077 h 0.30788 v 0.15394 l -0.61576,-0.077 v 0.30788 l -0.69272,0.077 0.15393,0.15394 -0.53878,0.15394 -0.30788,0.23091 v 0.077 h 1.0006 l -0.23091,-0.15393 1.07758,-0.077 -0.15394,-0.23091 0.53879,-0.077 -0.077,0.23091 0.7697,-0.23091 v -0.077 h -0.38485 v -0.077 l 0.53879,0.077 0.38484,-0.15394 v -0.077 l -0.15394,-0.15394 0.46182,0.15394 c 4.15112,-2.24826 9.3365,-3.38878 13.77758,-5.01136 8.42546,-3.0783 16.80727,-6.41217 25.32303,-9.228043 -0.39436,-0.66596 -1.62081,-0.87395 -2.30909,-1.13665 -3.45713,-1.31953 -5.11421,-0.23425 -8.3897,1.26975 -5.77952,2.653783 -11.62342,5.169713 -17.39515,7.840573 -3.50975,1.62413 -7.10922,3.66182 -10.77576,4.88027 m -32.891723,-14.957783 -0.0257,0.0513 0.0257,-0.0513 m 28.273543,-0.0513 v 0.15394 h -0.15394 l 0.15394,-0.15394 m -11.31454,0.23091 0.077,0.077 -0.077,-0.077 m -18.087893,0.23091 -0.077,0.077 0.077,-0.077 m 4.643844,0.12828 0.0256,0.0513 -0.0256,-0.0513 m -3.258384,0.10263 0.077,0.23091 -0.077,-0.23091 m 22.757373,0.0513 -0.0256,0.0513 0.0256,-0.0513 m -5.59313,0.25657 -0.077,0.077 0.077,-0.077 m 4.0794,0.23091 0.077,0.077 -0.077,-0.077 m -20.935763,0.15394 v 0.38485 h -0.077 l 0.077,-0.38485 m -1.1802,0.35919 -0.0257,0.0513 0.0257,-0.0513 m 21.885053,-0.0513 0.077,0.077 -0.077,-0.077 m -0.077,0.15394 v 0.2309 h 0.077 l -0.077,-0.2309 m 1.30848,0 0.077,0.077 -0.077,-0.077 m 5.8497,0.15393 -0.077,0.077 0.077,-0.077 m 14.39333,83.666073 c -2.64355,-0.95671 -5.96475,0.40719 -8.69723,-0.20607 -0.9055,-0.20323 -1.54802,-1.14184 -2.14365,-1.78722 -1.4908,-1.61532 -3.65201,-3.34349 -4.72846,-5.25705 -0.64059,-1.13874 -0.20944,-3.39508 -0.20944,-4.67997 v -11.39151 c 0,-1.17226 -0.60462,-4.44833 1.07763,-4.60613 0.87491,-0.0821 3.19038,-0.37248 3.77313,0.39273 0.77916,1.02312 0.22924,4.02896 0.22924,5.29097 0,5.45365 -1.74471,14.12567 4.47479,16.97721 2.84147,1.30279 5.0007,-0.85082 6.69275,-2.70305 0.56305,-0.61634 1.62439,-1.40148 1.76303,-2.26689 0.36865,-2.30123 3.3e-4,-4.97557 3.3e-4,-7.31212 0,-0.93923 0.25921,-2.33821 -0.0908,-3.21754 -0.69744,-1.75222 -3.467,-4.18412 -4.91224,-5.40306 -0.83139,4.09848 0.94373,8.82447 -0.13134,12.85338 -0.3148,1.17975 -4.11858,1.30667 -4.79639,0.43806 -0.75551,-0.9682 -0.22924,-3.85384 -0.22924,-5.05568 0,-4.2375 0.88613,-9.57698 -0.0435,-13.70061 -0.21229,-0.94168 -1.37205,-1.78442 -2.0046,-2.46303 -1.70378,-1.82784 -4.33367,-3.91474 -5.44067,-6.15758 -0.76163,-1.54311 -0.43915,-3.56073 -0.43915,-5.23394 0,-3.51777 -0.077,-7.02858 -0.077,-10.54484 h -0.077 v 3.5406 h -0.077 V 121.658 h 0.077 v 0.30788 h 0.077 l 0.23091,-0.53879 c -0.32578,-1e-5 -0.17439,-0.33393 0,-0.46181 v 0.38484 h 0.077 l 0.23091,-0.69272 h -0.077 l -0.15394,0.15394 c 0.02,-0.18966 0.0356,-0.36765 0.23091,-0.23091 l 0.53879,-0.7697 -0.23091,0.077 v -0.23091 h 0.46182 v -0.077 h -0.23091 l 0.077,-0.23091 1.5394,-0.7697 v -0.077 h -1.46243 v 0.077 h 0.61576 v 0.077 l -1.92424,0.15394 -0.84667,3.00182 h -0.077 l -0.077,-0.38485 h -0.077 l -0.077,2.15516 h -0.077 v -0.38485 h -0.077 l -0.077,2.07818 h -0.077 v -1.07758 h -0.077 l -0.15394,2.15515 h -0.077 v -0.53878 h -0.077 l -0.46181,2.23212 0.15394,0.38485 h -0.077 l -0.077,-0.30788 h -0.077 c -0.1381,1.88836 -0.77418,1.00501 -2.00122,0.92363 l 0.15394,-0.15394 v -0.077 c -1.11175,0.55893 2.27041,2.43622 0.2644,3.84573 -0.92928,0.65294 -1.62234,-2.31713 -2.88137,-1.3827 v 0.077 c 1.78738,2.11845 2.28276,2.54683 1.23152,5.08 -0.99461,-0.56511 -1.93266,-3.59812 -3.00194,-3.64379 -0.78411,-0.0335 0.0966,1.32813 0.22836,1.56561 1.37961,2.4876 2.19012,3.36459 0.31055,5.77273 h -0.077 l -2.84788,-6.15758 -0.61576,0.15394 c 0.14228,2.41064 2.49448,4.93213 2.31554,7.31212 -0.033,0.43852 -1.5926,2.466 -2.06703,2.12793 -1.13976,-0.81219 -1.43265,-5.30703 -1.81814,-6.66914 -0.0975,-0.34444 -0.3309,-2.21502 -0.93102,-1.85187 -0.57076,0.34538 0.0261,2.09548 0.0889,2.62157 0.2473,2.0716 1.637,5.4519 1.10608,7.46466 -0.14542,0.55131 -1.88762,2.17079 -2.49897,2.06455 -0.42381,-0.0736 -0.35759,-1.77483 -0.40736,-2.14012 -0.3223,-2.36571 -0.2525,-4.78565 -0.50825,-7.15818 -0.0429,-0.39817 10e-4,-2.64089 -0.64633,-2.46074 -0.61548,0.17124 -0.40618,2.76642 -0.40618,3.30741 0,2.70273 0.77848,7.24864 -0.15374,9.75949 -0.20697,0.55745 -2.581339,2.0006 -3.169659,1.76165 -0.43912,-0.17836 0.009,-2.38985 0.057,-2.82357 0.32401,-2.9516 0.81179,-5.96517 0.95013,-8.92848 0.0235,-0.50329 0.580859,-3.25605 -0.14938,-3.25605 -0.74383,0 -1.2105,4.37972 -1.32857,5.10332 -0.43631,2.67399 -0.9701,5.35323 -1.52351,8.00485 -0.17596,0.84304 -0.13638,2.28001 -0.69472,2.961 -0.61114,0.74538 -2.910724,1.2421 -3.839644,1.19536 0.56963,-2.32824 1.29752,-4.6185 1.94011,-6.92727 0.421774,-1.51542 0.849294,-3.02783 1.278894,-4.54121 0.45856,-1.61543 0.92283,-3.22935 1.36651,-4.84909 0.0926,-0.33816 0.62815,-1.55076 -0.11377,-1.52326 -0.792,0.0294 -1.71922,3.66394 -1.98318,4.37113 -1.141354,3.05788 -2.333984,6.09735 -3.464044,9.1594 -0.52482,1.42209 -0.90223,3.34794 -1.77246,4.59208 -0.44038,0.62959 -3.48623,0.99897 -4.11816,0.57097 -0.52239,-0.35382 1.48238,-3.76741 1.74935,-4.31639 1.90635,-3.92004 3.74317,-7.8778 5.69245,-11.77636 0.23721,-0.47441 2.077084,-3.7465 1.12353,-3.71353 -1.007,0.0348 -2.80934,4.2505 -3.32004,5.09899 -2.09177,3.47529 -4.15851,6.96722 -6.20759,10.46787 -0.62573,1.069 -1.50381,3.49156 -2.58569,4.10809 -0.97801,0.55736 -3.521679,-0.13445 -4.518029,-0.49051 1.61536,-2.80996 3.840439,-5.36116 5.715549,-8.00485 1.2455,-1.75602 2.51145,-3.49892 3.78569,-5.23394 1.35912,-1.85058 2.69008,-3.72809 4.02251,-5.59784 0.21904,-0.30738 1.52623,-1.74645 0.63605,-1.93394 -0.48539,-0.10224 -1.01536,0.75782 -1.2783,1.06633 -1.05313,1.23565 -2.12224,2.45764 -3.1738,3.69456 -2.9964,3.5246 -5.99189,7.05606 -9.029659,10.54483 -1.20689,1.38609 -2.43598,3.48925 -3.9426,4.54089 -0.63063,0.44017 -4.05346,-0.68058 -4.49674,-1.30014 -0.3042,-0.42517 0.59401,-1.03372 0.85059,-1.27468 1.11491,-1.04701 2.20162,-2.13198 3.29457,-3.20221 4.10514,-4.0198 8.220819,-8.02789 12.334979,-12.03885 0.4804,-0.46835 4.14748,-3.61052 3.32041,-4.01878 -0.51354,-0.2535 -1.29188,0.65969 -1.64848,0.94213 -1.48437,1.17565 -2.9273,2.40767 -4.38713,3.6137 -4.173629,3.448 -8.338109,6.91455 -12.546059,10.32081 -1.28217,1.0379 -3.32052,3.53701 -4.92612,3.9321 -0.99574,0.24502 -4.03916,-1.81845 -4.61812,-2.59254 3.12596,-1.59622 6.02687,-4.05603 8.92848,-6.0356 5.89711,-4.02318 11.794379,-8.04593 17.703029,-12.05228 -0.50843,-1.05086 -1.60089,-0.10005 -2.30909,0.3071 -2.06574,1.18761 -4.14811,2.35807 -6.234549,3.50955 -5.10665,2.81834 -10.19683,5.68698 -15.24,8.61767 -1.44479,0.83961 -4.42113,3.32976 -6.0806,3.32193 -1.01603,-0.005 -3.47139,-2.41535 -3.99351,-3.24036 -0.36293,-0.57349 1.00999,-0.9477 1.37654,-1.11171 1.79766,-0.80438 3.60414,-1.59592 5.38788,-2.43058 6.52514,-3.05329 13.13537,-5.94132 19.704239,-8.89967 1.53906,-0.69313 3.08591,-1.37201 4.61818,-2.07955 0.30501,-0.14084 1.59165,-0.59735 1.04756,-1.13206 -0.36728,-0.36095 -1.71184,0.32917 -2.12513,0.4767 -2.04898,0.7314 -4.106639,1.43887 -6.157579,2.16523 -6.13254,2.17191 -12.26645,4.33993 -18.39576,6.52171 -2.48031,0.88288 -5.84556,2.85522 -8.46596,2.97273 -0.85778,0.0385 -3.63088,-3.50613 -3.73122,-4.36018 -0.059,-0.50231 1.24569,-0.62396 1.57536,-0.71691 1.7841,-0.50307 3.59432,-0.92009 5.38788,-1.38572 7.66992,-1.99125 15.35377,-4.18722 23.09091,-5.89566 2.09377,-0.46232 4.149829,-1.10185 6.234549,-1.60503 0.37595,-0.0907 1.96644,-0.26168 1.77121,-0.86598 -0.20688,-0.64038 -1.83967,-0.12271 -2.31,-0.0539 -2.44366,0.3577 -4.862699,0.92856 -7.312119,1.2449 -7.01787,0.90636 -14.04536,2.27245 -21.01273,3.51345 -2.97425,0.52976 -6.682,1.8066 -9.69339,1.63442 -0.88913,-0.0508 -3.08437,-4.50314 -2.91178,-5.37981 0.0939,-0.4768 1.81815,-0.3589 2.21426,-0.3973 2.33202,-0.22608 4.66953,-0.3317 7.00424,-0.52028 8.59124,-0.69391 17.20911,-1.22467 25.78485,-2.02673 1.99047,-0.18615 4.023409,-0.16388 6.003639,-0.43034 0.87944,-0.11834 1.89113,0.12393 1.84727,-0.99003 -10.696789,0 -21.399359,-0.23091 -32.096359,-0.23091 h -8.85152 c -0.89881,0 -2.65123,0.33557 -3.43778,-0.12524 -0.57214,-0.3352 -0.67997,-1.44026 -0.82276,-2.02991 -0.46547,-1.92218 -0.97721,-3.94386 -1.05037,-5.92666 0.5935,0.43843 0.83287,1.36047 1.49511,1.6812 1.01285,0.49054 2.63329,0.31702 3.73883,0.41468 2.58773,0.2286 5.1823,0.53347 7.77394,0.77424 6.26389,0.58196 12.51506,1.25141 18.78061,1.85258 2.97428,0.28537 6.17161,0.99357 9.15939,0.81911 v 0.077 h -0.15394 v 0.077 c 1.733839,0 3.613919,0.0912 5.310909,0.46182 l 0.30788,-0.077 0.077,-0.38485 -0.15394,-0.38484 -2.84788,-0.38485 v -0.077 h 0.15394 v -0.077 c -3.748499,-0.0543 -7.856059,-1.38718 -11.545449,-2.08656 -7.19636,-1.36417 -14.45134,-2.46926 -21.62849,-3.93207 -2.55041,-0.51982 -5.12834,-0.98853 -7.69697,-1.40764 -0.72685,-0.1186 -2.41928,-0.11899 -2.91134,-0.71751 -0.45454,-0.55288 -0.19888,-2.25714 -0.13989,-2.93986 0.2264,-2.62067 0.15155,-5.51568 1.12699,-8.004853 h 0.15394 c 0.49542,1.344723 1.42102,4.552613 2.55283,5.439193 0.57738,0.45228 1.75629,0.44541 2.4502,0.66708 2.17474,0.69472 4.39349,1.3217 6.6194,1.84727 7.21031,1.70246 15.18805,3.49904 22.0903,6.18323 3.04149,1.18279 6.45062,1.42757 9.467269,2.64263 0.38148,0.15364 2.65252,0.80348 2.69394,0.46181 h 0.077 l 0.077,0.15394 0.15394,-0.61575 C 74.140448,108.94255 62.671868,104.39773 51.114138,100.152 c -2.92654,-1.07507 -5.84948,-2.15949 -8.77455,-3.238063 -0.67606,-0.24928 -2.44031,-1.26551 -3.12598,-0.96533 -0.6763,0.29608 -0.98155,2.268583 -1.18885,2.926323 -0.93548,2.96817 -1.51155,5.97236 -2.15055,9.00546 -2.87765,13.65937 -0.004,29.16132 6.03832,41.56363 13.23436,27.16509 43.612529,41.9606 73.086452,36.99877 6.83267,-1.15025 14.50266,-3.29557 20.39697,-7.05755 m -43.103033,-83.512133 0.077,0.23091 -0.077,-0.23091 m 28.478793,0.15394 -0.077,0.077 0.077,-0.077 m -1.69333,0.30788 v 0.15394 h -0.15394 v -0.15394 h 0.15394 m -26.477583,0.077 v 0.30788 h -0.077 l 0.077,-0.30788 m 4.772124,0.077 v 0.38485 l 0.23091,-0.077 -0.23091,-0.30788 m 0.38485,0.077 -0.077,0.15394 h 0.15394 l -0.077,-0.15394 m 15.855759,0 v 0.15394 h 0.15394 v -0.15394 h -0.15394 m 0.53879,0 -0.077,0.077 0.077,-0.077 m 0.28222,0.0257 0.0513,0.0257 -0.0513,-0.0257 m -17.523429,0.0513 v 0.38485 h 0.077 l -0.077,-0.38485 m 21.936359,0 v 0.15394 h -0.15394 v -0.15394 h 0.15394 m -21.320609,0.077 -0.077,0.077 0.077,-0.077 m 16.240609,0.30788 0.077,0.077 -0.077,-0.077 m 0.38485,0 0.077,0.077 -0.077,-0.077 m 5.77272,0 -0.077,0.077 0.077,-0.077 m -0.2309,0.23091 v 0.15394 h -0.15394 l 0.15394,-0.15394 m -21.705459,0.538793 0.077,0.077 -0.077,-0.077 m 15.650509,0.12828 0.0256,0.0513 -0.0256,-0.0513 m -23.911923,0.077 -0.0257,0.0513 0.0257,-0.0513 m 4.25899,-0.0513 -0.077,0.077 0.077,-0.077 m 0.30788,0.30787 0.077,0.077 -0.077,-0.077 m 23.244843,0 0.077,0.077 -0.077,-0.077 m -0.15394,0.15394 0.077,0.077 -0.077,-0.077 m -27.324243,0.077 v 0.15394 l -0.15394,-0.15394 h 0.15394 m 4.23334,0.23091 -0.077,0.077 0.077,-0.077 m 29.248483,0.077 -0.077,0.077 0.077,-0.077 m -34.431113,0.12828 -0.0257,0.0513 0.0257,-0.0513 m 36.098783,0 -0.0256,0.0513 0.0256,-0.0513 m -34.944233,0.077 -0.0257,0.0513 0.0257,-0.0513 m 26.734143,0.0257 0.077,0.077 -0.077,-0.077 m 6.31151,0 -0.15394,0.15394 v -0.15394 h 0.15394 m -29.710303,0.077 0.077,0.077 -0.077,-0.077 m 0.61576,0.077 0.077,0.077 -0.077,-0.077 m 23.167873,0 v 0.23091 h -0.077 l 0.077,-0.23091 m 0.15394,0 -0.077,0.077 0.077,-0.077 m 0.15394,0.077 -0.077,0.077 0.077,-0.077 m -23.629693,0.077 -0.077,0.30788 h 0.077 v -0.30788 m 28.940603,0 -0.077,0.077 0.077,-0.077 m -0.23091,0.23091 -0.15394,0.15394 V 99.5681 h 0.15394 m -0.33354,0.28222 -0.0256,0.0513 0.0256,-0.0513 m -32.532523,0.1796 -0.077,0.077 0.077,-0.077 m -3.84848,0.077 -0.077,0.077 0.077,-0.077 m 36.098793,0.0257 c 0.0595,0 0.0123,0.0383 -0.0257,0.0257 l 0.0257,-0.0257 m 1.53939,0.0513 v 0.15394 h -0.15394 v -0.15394 h 0.15394 m -1.79596,0.20525 -0.0256,0.0513 0.0256,-0.0513 m 1.48808,0.10263 -0.077,0.077 0.077,-0.077 m -33.327883,0.077 0.077,0.077 -0.077,-0.077 m 31.634553,0 v 0.15394 h -0.15394 l 0.15394,-0.15394 m -35.098183,0.077 -0.077,0.077 0.077,-0.077 m 34.867273,0.23091 v 0.15393 h -0.15394 v -0.15393 h 0.15394 m -0.53879,0.46181 -0.23091,0.38485 h -0.077 l 0.30788,-0.38485 m -33.789703,0.077 -0.077,0.077 0.077,-0.077 m 4.56687,0.0513 0.0257,0.0513 -0.0257,-0.0513 m 30.377383,0.0257 v 0.15394 h -0.15394 v -0.15394 h 0.15394 m -36.098793,0.077 -0.077,0.077 0.077,-0.077 m 1.38545,0.15394 -0.077,0.077 0.077,-0.077 m 3.54061,0.077 0.077,0.077 -0.077,-0.077 m 1.00061,0 -0.30788,0.92364 h 0.077 l 0.15394,-0.15394 0.23091,0.23091 -0.15394,-1.00061 m 29.864243,0.077 0.077,0.077 -0.077,-0.077 m -34.097583,0.077 v 0.15394 l -0.15394,-0.15394 h 0.15394 m -0.94929,0.43616 -0.0257,0.0513 0.0257,-0.0513 m 1.48808,0.33354 -0.077,0.077 0.077,-0.077 m 38.459193,0.0513 -0.0256,0.0513 0.0256,-0.0513 m -39.382833,0.10263 -0.077,0.077 0.077,-0.077 m 4.77213,0 0.077,0.077 -0.077,-0.077 m 28.478783,0 -0.077,0.15394 0.077,-0.15394 m -32.096363,0.077 0.077,0.077 v 0.077 l -0.077,0.077 h -0.077 l -0.077,-0.077 v -0.077 l 0.15394,-0.077 m 31.814143,0.0513 0.0256,0.0513 -0.0256,-0.0513 m -32.660813,0.10263 v 0.15394 h -0.15394 v -0.15394 h 0.15394 m 1.15455,0.15394 v 0.15393 h -0.15394 v -0.15393 h 0.15394 m 37.176363,0 -0.077,0.077 0.077,-0.077 m -38.176973,0.17959 0.0257,0.0256 c -0.038,0.0127 -0.0852,-0.0256 -0.0257,-0.0256 m 0.38485,0.20525 -0.15394,0.15394 v -0.15394 h 0.15394 m 37.022423,0.15394 -0.15394,0.15394 v -0.15394 h 0.15394 m -36.791513,0.077 v 0.15394 h -0.15335 v -0.15394 h 0.15393 m 0.84667,0 0.077,0.23091 -0.077,-0.23091 m 36.560613,9.39031 v 0.077 h 0.23091 v 0.077 l -0.53879,0.077 0.077,-0.2309 -1.0006,0.2309 v 0.077 h 0.46181 v 0.15394 c -0.29409,0 -0.59695,0.0787 -0.53878,-0.15394 l -0.53879,0.23091 v 0.077 h 0.30788 v 0.077 l -1.30849,0.077 v 0.077 h 0.30788 v 0.077 l -1.07757,0.077 -0.7697,0.30788 0.077,0.23091 3.07879,-0.15394 v -0.077 h -1.23152 v -0.077 l 1.38546,0.077 0.84666,-0.15394 v -0.077 l -0.30788,-0.077 v -0.077 l 0.69273,0.15394 1.61636,-0.23091 v -0.077 h -0.61575 v -0.077 c 5.75275,-0.0785 11.80689,-1.89165 17.47212,-2.8857 7.69565,-1.35033 15.5479,-2.39383 23.16788,-4.11854 -3.9268,-4.31409 -8.51595,-2.25064 -13.31576,-0.99273 -9.30606,2.43888 -18.98459,5.83073 -28.47879,7.30425 m -37.099403,-9.1594 v 0.23091 l -0.23091,-0.077 0.23091,-0.15394 m 36.175763,0 -0.077,0.077 0.077,-0.077 m -36.021823,0.23091 0.077,0.23091 -0.077,-0.23091 m 35.483043,0.0257 c 0.0595,0 0.0123,0.0383 -0.0257,0.0256 l 0.0257,-0.0256 m 1.92424,0.077 c 0.0595,0 0.0123,0.0383 -0.0257,0.0257 l 0.0257,-0.0257 m -36.483643,0.0513 0.077,0.077 -0.077,-0.077 m 34.328493,0.077 v 0.15394 H 123.928 v -0.15394 h 0.15394 m -35.021223,0.38485 0.077,0.077 -0.077,-0.077 m 35.636983,0.33354 c 0.0595,0 0.0123,0.0383 -0.0257,0.0256 l 0.0257,-0.0256 m -34.328493,0.0513 0.077,0.077 -0.077,-0.077 m 34.097583,0.15394 v 0.077 h -0.30788 l 0.30788,-0.077 m -38.407893,0.15394 -0.077,0.077 0.077,-0.077 m 3.92546,0.15394 0.15394,0.15393 -0.15394,-0.15393 m -4.84909,0.25656 0.0257,0.0257 c -0.038,0.0127 -0.0852,-0.0257 -0.0257,-0.0257 m 1.53939,0.12828 v 0.15394 h -0.15394 v -0.15394 h 0.15394 m 0.20526,0.28222 -0.0257,0.0513 0.0257,-0.0513 m -0.97496,0.12829 0.0257,0.0256 c -0.038,0.0127 -0.0852,-0.0256 -0.0257,-0.0256 m 35.329103,0.0513 -0.077,0.53879 h 0.077 l 0.38485,-0.23091 -0.077,-0.30788 h -0.30788 m -34.944253,0.15394 -0.077,0.077 0.077,-0.077 m 35.406073,0.15394 0.077,0.077 -0.077,-0.077 m -34.867283,0.23091 h -0.23091 l 0.077,-0.15394 0.15394,0.15394 m 1.07758,0 0.077,0.077 -0.077,-0.077 m 33.404853,0 0.077,0.077 -0.077,-0.077 m -33.943643,0.38485 -0.077,0.077 0.077,-0.077 m 0.15394,0.077 -0.077,0.077 0.077,-0.077 m 0.92363,0.53879 0.077,0.077 -0.077,-0.077 m 38.253953,0.17959 c 0.0595,0 0.0123,0.0383 -0.0257,0.0257 l 0.0257,-0.0257 m -0.46182,0.20525 -0.23091,0.15394 0.23091,-0.15394 m 2.46303,0.10263 c 0.0595,0 0.0123,0.0383 -0.0257,0.0256 l 0.0257,-0.0256 m -43.795763,0.43616 v 0.077 h -0.23091 l 0.23091,-0.077 m 40.332123,0 v 0.077 h -0.46181 l 0.46181,-0.077 m 1.30849,0.30788 0.077,0.15394 h -0.15394 l 0.077,-0.15394 m -2.92485,0.15394 0.077,0.077 -0.077,-0.077 m -37.869093,0.10263 0.0257,0.0256 c -0.038,0.0127 -0.0852,-0.0256 -0.0257,-0.0256 m -1.38546,0.077 c 0.0595,0 0.0123,0.0383 -0.0257,0.0256 l 0.0257,-0.0256 m 41.563643,-0.0257 v 0.077 h -0.30788 l 0.30788,-0.077 m -39.870313,0.1796 c 0.0595,0 0.0123,0.0383 -0.0257,0.0256 l 0.0257,-0.0256 m 36.406673,0.20525 0.077,0.077 -0.077,-0.077 m -35.867883,0.077 -0.077,0.077 0.077,-0.077 m -1.0006,0.077 v 0.077 h -0.23091 l 0.23091,-0.077 m 36.483643,0.077 0.077,0.077 -0.077,-0.077 m 0.53878,0.53879 v 0.077 h 0.30788 l -0.30788,-0.077 m -1.10323,0.17959 0.0513,0.0256 -0.0513,-0.0256 m 8.33839,1.20586 -0.077,0.077 0.077,-0.077 m -44.796373,0.69273 -0.23091,-0.077 0.23091,0.077 m 42.795153,-0.15394 v 0.077 h -0.231 l 0.23091,-0.077 m -44.873333,0.10263 c 0.0595,0 0.0123,0.0383 -0.0257,0.0256 l 0.0257,-0.0256 m 2.61697,0.12828 v 0.15394 h -0.15394 v -0.15394 h 0.15394 m 41.409703,0 -0.23091,0.15394 0.23091,-0.15394 m -41.948493,0.38485 v 0.077 h -0.38485 l 0.38485,-0.077 m 0.46182,0.30787 0.077,0.077 -0.077,-0.077 m 43.180003,0.0257 c 0.0595,0 0.0123,0.0383 -0.0257,0.0256 l 0.0257,-0.0256 m -5.31091,0.0513 0.077,0.077 -0.077,-0.077 m -0.71839,0.25657 0.0513,0.0256 -0.0513,-0.0256 m -1.05191,0.82101 0.077,0.077 -0.077,-0.077 m -36.637583,1.00061 0.077,0.077 -0.077,-0.077 m -2.46303,0.46181 v 0.077 h -0.23091 l 0.23091,-0.077 m 53.186063,1.92425 v 0.077 c 2.84418,1.87961 3.07879,3.88423 3.07879,7.08121 0,0.8288 0.25796,2.25131 -0.41602,2.87848 -0.71496,0.6653 -2.6001,0.40799 -3.50942,0.34213 -2.27892,-0.16503 -0.78225,-3.40979 -1.62421,-4.75271 -0.98455,-1.57036 -5.39809,-1.30901 -6.99635,-0.85351 -1.88361,0.53681 -1.38552,3.22045 -1.38552,4.6947 0,4.35138 -1.16757,8.99027 2.54,12.00727 0.20976,-1.26391 -0.5796,-3.70206 0.37777,-4.72824 0.55109,-0.59069 1.24095,0.15825 1.61165,0.57652 1.03629,1.16929 2.77255,2.56251 3.11605,4.15172 0.36292,1.67907 -0.69292,4.53688 0.28997,5.9827 1.95622,2.87761 4.87862,5.34587 7.19283,7.94825 0.9045,1.01713 2.25146,2.04342 2.65228,3.38723 0.94903,3.1818 0.15339,7.68592 0.15339,11.00667 0,1.14402 0.34297,2.96675 -0.19408,4.00105 -1.26833,2.44266 -4.24566,3.86096 -5.50167,6.31289 4.7239,-1.60872 9.58532,-6.33473 13.11982,-9.71649 1.08661,-1.03964 3.29177,-2.60457 3.7466,-4.06246 0.50351,-1.6139 0.0669,-4.00274 0.0669,-5.69438 v -12.46965 c 0,-5.54434 -1.05257,-11.57346 1.82591,-16.47152 0.54157,-0.92153 1.45477,-3.52332 2.562,-3.82774 0.71889,-0.19765 0.68809,1.19639 0.69138,1.59562 0.0159,1.92396 7.1e-4,3.84869 7.1e-4,5.77273 0,8.19067 -0.077,16.36701 -0.077,24.55333 2.31928,-1.15199 4.25148,-6.4495 5.37883,-8.69758 3.02016,-6.02256 5.44011,-12.98726 6.2237,-19.70424 0.43057,-3.69085 0.0199,-7.67333 0.0199,-11.39151 h -7.62 c -0.70624,0 -2.27823,-0.29251 -2.84795,0.17466 -1.4922,1.22362 -2.54279,4.5704 -3.4333,6.29079 -2.46875,4.76945 -4.99381,9.52233 -7.56155,14.23939 -1.09468,2.01099 -2.29077,6.19003 -4.78386,6.71009 -3.23849,0.67555 -4.51369,-1.32883 -6.41659,-3.55564 -2.37361,-2.77764 -4.76133,-5.54257 -7.14524,-8.31142 -1.34068,-1.55715 -4.39501,-3.74104 -2.42216,-5.75703 1.81058,-1.85017 3.36939,-0.0661 4.65092,1.32391 3.24666,3.52159 6.81043,6.92166 9.79367,10.66767 1.38018,-0.75316 2.38745,-4.07562 3.09314,-5.46485 1.84299,-3.62818 3.70945,-7.248 5.59766,-10.85273 0.87403,-1.6686 2.30904,-3.61987 2.70072,-5.46484 h -18.5497 m -15.54788,0.23091 0.077,0.077 -0.077,-0.077 m 0.38485,0 0.077,0.077 -0.077,-0.077 m 1.07758,0.30787 -0.30788,-0.077 0.30788,0.077 m -0.30788,0.15394 -0.077,0.15394 h -0.077 l -0.077,-0.15394 h 0.23091 m -36.560613,0.53879 -0.077,0.077 0.077,-0.077 m -2.23212,0.30788 v 0.077 h -0.38485 l 0.38485,-0.077 m 37.638183,0.15394 0.077,0.23091 -0.077,-0.23091 m -2.07818,2.54 v 0.61576 h 0.077 l -0.077,-0.61576 m -32.019403,2.46303 -0.077,0.077 0.077,-0.077 m 31.403643,2.07818 v 0.38485 h -0.077 l 0.077,-0.38485 m -30.095153,0.53879 -0.077,0.077 0.077,-0.077 m 27.478183,1.61636 v 0.15394 h -0.15393 v -0.15394 h 0.15393 m 0.61576,0 -0.077,0.077 0.077,-0.077 m 1.07758,0.53879 v 0.077 h -0.30788 l 0.30788,-0.077 m -0.38485,1.84727 -0.077,0.077 0.077,-0.077 m -5.61879,1.30849 -0.077,0.077 0.077,-0.077 m -2.61697,1.38545 -0.077,0.077 0.077,-0.077 m -2.23212,0.69273 v 0.15394 h -0.15394 v -0.15394 h 0.15394 m -6.234549,0.30788 -0.077,0.077 0.077,-0.077 m 0.38485,0 -0.077,0.077 0.077,-0.077 m 0,0.84667 v 0.30787 h -0.077 z"
     id="path4" /></svg>
